<svg style="margin-left: auto;margin-right: auto;" width="40" height="40" viewBox="0 0 40 40" fill="none" xmlns="http://www.w3.org/2000/svg">
    <path fill-rule="evenodd" clip-rule="evenodd" d="M20.26 25.2175L24.26 38.7175C24.36 39.2175 24.76 39.1175 24.96 38.8175L32.16 28.4175C32.46 28.0175 32.36 27.5175 32.06 27.2175H31.96L20.26 18.2175V25.2175ZM32.86 19.8175L36.56 7.11745C36.76 6.41745 36.46 6.11745 35.66 6.71745L20.56 17.2175L26.86 22.1175L32.66 20.1175C32.76 20.0175 32.86 19.9175 32.86 19.8175Z" fill="#B9D719"/>
    <path fill-rule="evenodd" clip-rule="evenodd" d="M19.36 25.2174L15.36 38.7174C15.26 39.2174 14.86 39.1174 14.66 38.8174L7.46 28.3174C7.16 27.9174 7.26 27.4174 7.56 27.1174H7.66L19.36 18.1174V25.2174ZM6.66 19.8174L3.06 7.11743C2.86 6.41743 3.16 6.11743 3.96 6.61743L19.06 17.2174L12.66 22.1174L6.86 20.1174C6.76 20.0174 6.66 19.9174 6.66 19.8174Z" fill="#686868"/>
    <path d="M5.75994 2.21732C6.45994 0.917325 8.35994 0.617325 10.1599 1.51732C11.9599 2.41732 12.7599 4.21732 12.0599 5.51732C11.3599 6.81732 9.35994 7.11732 7.55994 6.21732C5.75994 5.31732 5.05994 3.41732 5.75994 2.21732Z" stroke="#686868" stroke-width="0.658" stroke-miterlimit="2.61"/>
    <path d="M10.3599 1.61743C10.3599 1.61743 11.8599 5.31743 7.75989 6.21743M10.2599 4.61743C10.2599 4.61743 17.0599 6.91743 19.6599 17.0174" stroke="#686868" stroke-width="0.658" stroke-miterlimit="2.61" stroke-linecap="round"/>
    <path d="M33.76 2.21732C33.06 0.917325 31.16 0.617325 29.36 1.51732C27.56 2.41732 26.86 4.21732 27.46 5.51732C28.06 6.81732 30.06 7.11732 31.86 6.21732C33.56 5.31732 34.36 3.41732 33.76 2.21732Z" stroke="#686868" stroke-width="0.658" stroke-miterlimit="2.61"/>
    <path d="M29.1599 1.61743C29.1599 1.61743 27.6599 5.31743 31.7599 6.21743M29.1599 4.61743C29.1599 4.61743 22.3599 6.91743 19.7599 17.0174" stroke="#686868" stroke-width="0.658" stroke-miterlimit="2.61" stroke-linecap="round"/>
</svg>