<svg style="margin-left: auto;margin-right: auto;" width="40" height="40" viewBox="0 0 78 71" fill="none" xmlns="http://www.w3.org/2000/svg">
    <rect width="78" height="71" fill="white"/>
    <g opacity="0.9">
        <path d="M20.0626 17.2496L30.9486 41.37C32.6674 45.2528 28.3131 48.7826 24.99 46.3117L4.24935 30.4276C-0.448801 26.8978 -1.36552 20.0735 2.07215 15.3671C6.7703 8.77808 16.8541 9.83702 20.0626 17.2496Z" fill="#686868"/>
    </g>
    <g opacity="0.9">
        <path d="M58.7938 30.4275L38.0532 46.3116C34.7301 48.7825 30.3757 45.135 32.0945 41.3699L42.9805 17.2495C45.3869 11.8372 51.6893 9.48396 56.9604 12.0725C64.1795 15.367 65.0962 25.7211 58.7938 30.4275Z" fill="#B7D433"/>
    </g>
    <g opacity="0.9">
        <path d="M13.7604 51.2532L27.3965 41.0168C29.5737 39.3695 32.4384 41.8404 31.4071 44.3112L24.4172 60.0777C22.8129 63.7252 18.6877 65.2548 15.1355 63.6075C10.0935 61.4897 9.40598 54.43 13.7604 51.2532Z" fill="#686868"/>
    </g>
    <g opacity="0.9">
        <path d="M39.0846 60.0779L32.0946 44.3114C30.9487 41.7229 33.928 39.3697 36.1052 41.0169L49.7413 51.2534C52.8352 53.6066 53.5228 58.0777 51.231 61.3721C48.0225 65.8432 41.2617 65.0196 39.0846 60.0779Z" fill="#B7D433"/>
    </g>
</svg>